<svg width="285" height="201" viewBox="0 0 285 201" fill="none" xmlns="http://www.w3.org/2000/svg">
<path d="M280.156 3.93985C279.828 4.08215 279.735 4.31658 279.806 4.47987C280.041 4.572 280.253 5.06189 279.619 4.94876C279.15 4.76449 277.834 3.97721 277.976 4.30378C278.117 4.63036 278.073 5.42582 277.767 5.1704C277.625 4.84382 276.921 4.5674 276.5 4.94413C276.008 5.15758 274.297 5.7058 273.57 5.82711L272.914 6.11171C272.586 6.25401 272.187 6.23304 271.859 6.37534C271.46 6.35435 270.875 6.80222 270.569 6.5468C270.029 6.19924 269.984 6.99468 269.585 6.9737L269.187 6.95272C268.601 7.40061 267.617 7.82751 267.055 7.87767L266.563 8.09112C265.907 8.37572 265.064 9.12918 264.502 9.17934L263.54 9.20853C262.955 9.65641 261.456 10.6945 260.308 11.1925L259.09 11.5273C258.035 11.7909 256.887 12.289 256.115 13.2057C255.858 13.5113 255.038 13.8671 254.639 13.8461C254.077 13.8962 254.077 13.8962 253.655 14.273C253.234 14.6497 252.862 15.5875 251.851 15.0556L251.523 15.1979C251.408 15.8301 250.797 15.3192 250.54 15.6248C250.282 15.9304 250.096 16.3993 249.604 16.6127L249.276 16.755C248.877 16.734 247.729 17.2321 246.816 17.8223C245.903 18.4125 243.656 19.9696 243.562 20.204L243.164 20.183C242.53 20.0699 242.273 20.3755 241.922 20.9155C241.572 21.4555 240.916 21.7401 240.331 22.188C239.746 22.6359 239.232 23.2471 238.669 23.2972C237.942 23.4185 237.733 24.2852 237.1 24.172L236.865 24.0799C236.28 24.5278 236.071 25.3944 235.109 25.4235L233.048 26.5118L232.534 27.123C232.02 27.7341 230.521 28.7722 229.515 29.5968L228.602 30.187C228.11 30.4005 227.618 30.6139 227.994 31.0326L227.573 31.4094L226.142 31.2543C225.605 32.2632 224.905 33.3432 224.647 33.6488C224.39 33.9544 223.362 35.1767 223.105 35.4823C222.918 35.9512 220.973 36.4073 220.223 36.9263C219.474 37.4453 218.122 40.1664 217.279 40.9199L216.131 41.418L215.475 41.7026C214.797 42.3849 215.222 43.3646 216.232 43.8964L216.915 44.5706C217.597 45.2447 218.443 45.8477 218.961 46.593C220.303 48.339 221.902 49.7794 222.495 52.0444L222.898 53.4218C223.301 54.7993 223.845 56.5033 223.965 57.2276L224.412 57.8096C224.859 58.3916 224.815 59.1871 224.934 59.9113L225.054 60.6357C225.009 61.4311 224.871 62.461 224.849 62.8587C224.826 63.2564 224.76 64.4496 224.83 64.6129C224.972 64.9395 224.201 65.8562 224.107 66.0906L224.178 66.2539L224.111 67.4471C223.623 69.017 222.621 71.1981 221.92 72.2781L221.946 73.2369C221.902 74.0323 221.011 74.2248 221.13 74.9491C221.272 75.2757 220.43 76.0291 220.079 76.5692C219.986 76.8036 219.729 77.1092 219.636 77.3436C219.543 77.578 219.521 77.9758 219.427 78.2102C219.334 78.4446 218.723 77.9338 218.607 78.566C218.585 78.9637 217.623 78.9929 218.071 79.5749L216.576 81.9694L215.969 82.815C215.033 83.8029 213.677 85.1676 212.905 86.0843L212.298 86.9299C211.948 87.47 211.527 87.8467 211.035 88.0601C210.285 88.5792 209.678 89.4248 208.929 89.9438C208.344 90.3917 207.736 91.2373 206.868 91.0321C206.704 91.1032 206.54 91.1744 206.376 91.2455L205.392 91.6724C204.479 92.2626 202.839 92.9741 201.784 93.2377L200.8 93.6646L199.816 94.0915C198.761 94.3551 197.542 94.6899 197.05 94.9033C196.558 95.1168 194.657 94.7774 193.93 94.8987C193.203 95.02 189.8 94.3623 188.063 93.9518L187.545 93.2065L187.098 92.6245C186.393 92.3481 185.383 91.8162 184.842 91.4687L184.302 91.1211C183.761 90.7735 183.314 90.1915 182.774 89.844C182.703 89.6807 182.632 89.5174 182.397 89.4253C181.998 89.4043 181.435 89.4545 181.2 89.3623C180.802 89.3413 181.245 88.5669 180.611 88.4537C180.213 88.4328 180 87.9429 179.858 87.6163C179.34 86.871 178.658 86.1969 178.304 85.3805L177.879 84.4008C177.618 83.3499 177.353 80.9425 177.207 79.2595L177.132 77.7398L177.035 76.6178C177.594 75.2111 178.246 73.5701 178.455 72.7035L179.133 72.0212L179.648 71.41C179.856 70.5434 180.415 69.1368 180.765 68.5967C181.28 67.9856 182.282 65.8045 182.468 65.3356C182.655 64.8667 183.449 63.5523 183.214 63.4601C182.908 63.2047 184.313 62.4011 184.827 61.7899C185.342 61.1787 186.761 57.2644 188.42 54.7988L190.149 52.4964C192.229 49.654 194.543 46.9037 196.693 44.2246L197.044 43.6845C197.629 43.2366 196.853 42.7969 195.493 42.8051C194.132 42.8133 188.974 43.4992 186.957 43.792L185.34 44.1058L184.449 44.2983C183.465 44.7252 182.317 45.2232 181.825 45.4367C181.262 45.4868 179.693 46.3616 179.365 46.5039L178.966 46.4829C178.403 46.5331 178.593 47.4207 178.053 47.0731C178.053 47.0731 177.889 47.1443 177.725 47.2154C177.468 47.521 175.477 48.7725 175.149 48.9148C174.985 48.9859 174.728 49.2915 174.564 49.3627C173.58 49.7896 172.857 51.2674 171.448 50.7145C171.191 51.0201 170.278 51.6103 169.272 52.4349C168.359 53.0251 165.996 55.2144 166.536 55.5619L165.269 55.3357L164.564 55.0593C164.143 55.436 163.137 56.2606 162.459 56.943C161.709 57.462 159.511 59.5801 158.691 59.9359L158.34 60.4759C157.826 61.0871 157.121 60.8107 157.121 60.8107L157.267 62.4937C155.698 63.3685 154.222 64.0088 154.222 64.0088C154.058 64.08 153.495 64.1301 153.331 64.2013C153.167 64.2724 152.701 65.4446 152.045 65.7292C151.389 66.0138 149.448 67.8264 148.605 68.5798L147.927 69.2622C147.342 69.71 147.062 70.4134 146.172 70.6058C145.844 70.7481 145.657 71.217 145.4 71.5226L145.236 71.5937C144.908 71.736 144.558 72.276 144.606 72.8371L143.738 72.6318C143.738 72.6318 143.294 73.4063 142.873 73.783L142.616 74.0886C142.124 74.302 141.375 74.8211 141.047 74.9634L141.025 75.3611C140.931 75.5955 140.838 75.83 140.674 75.9011C139.854 76.2569 138.706 76.7549 138.52 77.2238L138.218 78.3248C137.212 79.1495 136.277 80.1374 135.949 80.2797L135.621 80.422C135.129 80.6354 134.402 80.7567 134.592 81.6443C134.592 81.6443 134.335 81.9499 134.007 82.0922C133.187 82.4479 132.766 82.8247 132.721 83.6201C132.77 84.1811 132.158 83.6703 132.229 83.8336L131.95 84.5369C131.435 85.1481 130.243 86.4416 129.307 87.4295L128.394 88.0197L127.481 88.6098C126.873 89.4554 125.61 90.5857 125.003 91.4313L124.559 92.2057C124.302 92.5113 123.363 92.1428 123.717 92.9592C123.788 93.1225 123.038 93.6415 122.781 93.9471L122.36 94.3238C121.939 94.7006 120.933 95.5252 120.418 96.1364C119.904 96.7476 117.612 99.1001 116.841 100.017C116.069 100.934 112.909 103.081 112.651 103.387C112.394 103.692 111.366 104.914 110.945 105.291C110.523 105.668 109.495 106.89 109.167 107.033C108.91 107.338 107.456 107.581 107.292 107.652C107.128 107.723 106.8 107.865 107.598 107.907L107.717 108.632C107.695 109.029 107.602 109.264 107.203 109.243C106.875 109.385 106.405 109.201 106.405 109.201L105.66 111.076C103.621 111.767 102.074 112.244 102.238 112.173C102.402 112.102 102.708 112.357 102.287 112.734C101.866 113.111 100.274 114.383 99.689 114.831L99.3387 115.371L98.9884 115.911C98.3324 116.196 97.2329 117.255 96.2975 118.243L95.1495 118.741L94.3295 119.096C94.0501 119.8 93.3009 120.319 92.7381 120.369C92.3393 120.348 91.2621 121.009 91.6386 121.428L90.7255 122.018C90.2335 122.232 90.0472 122.7 89.5775 122.516C89.4135 122.587 88.5489 123.738 87.4494 124.798L86.4655 125.224C85.9735 125.438 85.1758 125.396 84.6838 125.609C84.1918 125.823 83.9124 126.526 83.4912 126.903C83.0701 127.28 82.7198 127.82 82.2986 128.196L82.0415 128.502C81.5495 128.715 80.7518 128.673 80.353 128.652L80.6363 129.306C80.6363 129.306 80.0512 129.753 79.7232 129.896L78.81 130.486C77.4981 131.055 76.3501 131.553 76.3501 131.553C76.1153 131.461 75.6456 131.277 75.6456 131.277C75.6456 131.277 75.5524 131.511 75.6233 131.675C75.6941 131.838 76.0706 132.257 75.9066 132.328C75.7426 132.399 74.945 132.357 74.3113 132.244L74.5015 133.131C74.5015 133.131 73.9164 133.579 73.8455 133.416C73.3758 133.232 73.3535 133.629 73.0255 133.772C72.8615 133.843 72.3919 133.659 72.2279 133.73L71.8999 133.872C71.6427 134.178 71.2216 134.554 70.8004 134.931C70.5433 135.237 68.9518 136.509 68.1318 136.865L67.6175 137.476C67.1032 138.087 66.4472 138.372 65.6496 138.33L65.3216 138.472L64.9266 139.808C63.473 140.05 62.5113 140.079 62.8393 139.937C63.0033 139.866 63.5176 139.255 63.0256 139.468L62.7908 139.376C62.2503 139.029 62.2988 139.59 62.0416 139.895C61.5496 140.109 61.6913 140.435 61.5982 140.67L61.2479 141.21C60.4056 141.963 59.6787 142.084 59.865 141.616L59.7942 141.452L59.7234 141.289C59.4885 141.197 59.0897 141.176 58.8325 141.481L58.9034 141.645L58.8364 142.838C57.8525 143.265 56.6113 143.997 56.2833 144.14L56.1193 144.211L55.1577 144.24C54.4085 144.759 53.7302 145.441 53.4022 145.584C53.1451 145.889 51.8554 146.061 51.6914 146.132C51.3634 146.274 50.5434 146.63 50.4503 146.864C50.3571 147.099 49.772 147.547 49.5371 147.454C49.3023 147.362 48.2475 147.626 47.9195 147.768C47.5915 147.911 46.328 149.041 45.7206 149.886L44.9938 150.008L43.611 150.414C42.4407 151.309 40.7075 152.255 39.8875 152.611L39.0675 152.967L38.5756 153.18C38.1544 153.557 37.3344 153.913 36.6784 154.197C36.1864 154.411 34.3602 155.591 33.775 156.039L33.1414 155.926L32.5077 155.813C32.0865 156.19 31.4305 156.474 31.3374 156.709C29.742 156.625 28.5494 157.918 27.0958 158.161L26.533 158.211C25.8993 158.098 25.4073 158.311 25.2433 158.382C25.1501 158.617 24.073 159.278 23.1113 159.307C22.3137 159.265 18.4223 160.177 16.3127 160.705L14.4602 160.926C13.7334 161.048 12.9357 161.006 12.0449 161.198L11.1541 161.391C10.0507 161.093 8.94734 160.796 8.47766 160.612C8.00798 160.427 6.66981 160.038 6.59897 159.874C6.52813 159.711 6.3156 159.221 6.24476 159.058C6.17392 158.895 4.88427 159.066 4.55628 159.209L4.2729 158.555C3.63923 158.442 2.72606 159.032 2.21176 159.644C1.86145 160.184 -0.553852 160.455 -0.881846 160.598C-1.20984 160.74 -2.28701 161.401 -3.08468 161.359L-3.52813 162.134L-3.69214 162.205C-3.85614 162.276 -4.3481 162.49 -4.76925 162.866C-5.26124 163.08 -6.64409 163.486 -6.97208 163.628C-7.13608 163.699 -7.93371 163.657 -8.0977 163.728C-8.2617 163.799 -10.0657 164.582 -11.4708 165.386L-12.9468 166.026C-13.4388 166.24 -13.6736 166.147 -14.0948 166.524C-14.5159 166.901 -15.3359 167.257 -15.7347 167.236L-16.3684 167.123C-16.8604 167.336 -17.6804 167.692 -18.1724 167.905L-18.6644 168.119C-19.1564 168.332 -19.8124 168.617 -20.0472 168.525L-20.5877 168.177C-20.774 168.646 -21.1243 169.186 -21.3815 169.491C-21.6386 169.797 -23.07 169.642 -23.7968 169.763L-24.2888 169.977L-24.7808 170.19C-25.2019 170.567 -25.8579 170.852 -26.1859 170.994C-26.5139 171.136 -27.8967 171.542 -28.3887 171.755L-28.8807 171.969L-29.6076 172.09C-30.4984 172.283 -31.3892 172.475 -31.7172 172.617C-32.0452 172.76 -33.5211 173.4 -33.9423 173.777C-34.4343 173.99 -35.9811 174.467 -36.7303 174.986C-37.5502 175.342 -40.8564 175.806 -42.1684 176.376L-43.458 176.547C-44.1848 176.668 -44.2295 177.464 -45.0271 177.422L-45.6608 177.309C-46.3877 177.43 -47.0437 177.715 -47.3008 178.02L-47.6288 178.163C-48.0499 178.539 -48.6351 178.987 -49.1533 178.242C-49.1533 178.242 -49.8801 178.363 -49.8093 178.526L-50.0887 179.23C-50.8156 179.351 -51.9412 179.451 -52.3401 179.43C-52.7389 179.409 -53.9092 180.305 -54.0732 180.376C-54.4721 180.355 -55.5977 180.456 -55.6909 180.69C-55.784 180.925 -56.2052 181.301 -56.3468 180.975C-56.3245 180.577 -57.4948 181.473 -57.9868 181.686L-58.4788 181.9L-59.7908 182.469C-61.1028 183.038 -62.9553 183.26 -63.6598 182.983L-63.9392 183.687C-64.3119 184.624 -64.994 183.95 -65.486 184.164C-65.978 184.377 -66.634 184.662 -67.2677 184.549C-67.4317 184.62 -67.6888 184.925 -67.946 185.231C-68.2031 185.537 -69.6568 185.779 -70.3837 185.9L-70.8756 186.114C-71.3676 186.327 -71.9528 186.775 -72.6573 186.499C-72.6573 186.499 -72.9853 186.641 -73.1493 186.712L-73.3802 187.977C-74.5059 188.077 -75.7024 188.014 -76.1721 187.83C-76.5709 187.809 -78.304 188.755 -79.124 189.11L-79.5937 188.926C-80.4622 188.721 -80.3428 189.445 -80.9057 189.495C-81.4685 189.546 -82.2662 189.504 -82.3594 189.738C-82.8028 190.512 -83.4142 190.002 -83.8353 190.378C-84.3273 190.592 -84.8901 190.642 -85.453 190.692L-85.8518 190.671C-86.5078 190.956 -87.8198 191.525 -88.8037 191.952C-89.7877 192.379 -92.7174 193.262 -93.1162 193.241C-93.515 193.22 -94.335 193.575 -94.7338 193.554C-95.1327 193.533 -95.975 194.287 -96.139 194.358C-96.467 194.5 -97.9206 194.743 -98.6252 194.467L-98.9269 195.568C-99.4898 195.618 -100.779 195.789 -101.998 196.124C-103.053 196.388 -106.311 197.413 -106.874 197.463C-107.436 197.513 -108.185 198.032 -108.349 198.103C-108.677 198.246 -109.896 198.581 -110.623 198.702L-111.093 198.518C-111.89 198.476 -112.431 198.128 -112.968 199.137L-113.225 199.443C-113.952 199.564 -115.077 199.664 -115.711 199.551L-116.181 199.367L-117.027 198.764C-117.847 199.12 -118.924 199.781 -119.252 199.923C-119.58 200.065 -120.728 200.563 -120.799 200.4C-120.87 200.237 -121.809 199.868 -122.301 200.082C-122.957 200.366 -124.273 199.579 -123.874 199.6C-123.475 199.621 -122.349 199.521 -122.256 199.286C-122.163 199.052 -122.212 198.491 -122.447 198.399L-122.775 198.541C-123.595 198.897 -123.643 198.336 -124.02 197.917C-124.161 197.591 -123.647 196.979 -124.515 196.774L-124.985 196.59C-125.198 196.1 -125.623 195.12 -125.671 194.559C-125.884 194.069 -124.151 193.123 -123.823 192.981C-123.495 192.839 -122.183 192.27 -121.691 192.056C-121.199 191.843 -118.925 191.244 -118.433 191.031C-117.941 190.817 -115.761 190.454 -115.339 190.077C-114.847 189.863 -113.629 189.529 -113.371 189.223C-113.114 188.917 -111.191 188.859 -110.136 188.595C-109.152 188.169 -105.403 186.93 -104.348 186.666C-103.293 186.403 -100.128 185.612 -99.5656 185.562L-99.2376 185.419L-97.0125 184.26C-94.4108 183.519 -91.5744 182.871 -90.7544 182.515L-89.9344 182.159C-89.2784 181.875 -88.6224 181.59 -87.6608 181.561L-87.0979 181.511C-86.5128 181.063 -85.5288 180.636 -85.1077 180.259C-84.6157 180.046 -82.834 179.661 -82.342 179.447C-81.85 179.234 -79.9976 179.012 -79.3416 178.728C-78.6856 178.443 -76.3896 177.447 -75.8044 176.999L-75.5696 177.091C-74.9359 177.204 -74.7496 176.735 -74.3508 176.756C-73.952 176.777 -73.46 176.564 -73.132 176.422C-72.64 176.208 -72.148 175.995 -71.656 175.781C-71.328 175.639 -70.6235 175.915 -70.3663 175.61C-69.7589 174.764 -68.6555 175.062 -67.7424 174.471C-67.2504 174.258 -66.7584 174.045 -66.2664 173.831L-65.7744 173.618C-65.2116 173.567 -64.4848 173.446 -64.0859 173.467L-63.5939 173.254C-63.1019 173.04 -62.6808 172.664 -62.0471 172.777L-61.8123 172.869C-61.3911 172.492 -60.314 171.831 -59.5648 171.312C-58.7449 170.956 -56.4227 170.919 -56.2587 170.847C-56.2587 170.847 -55.1107 170.349 -53.8919 170.015C-52.7439 169.517 -49.1583 168.349 -48.4315 168.228C-47.7046 168.106 -45.595 167.579 -45.267 167.437L-44.775 167.223C-44.119 166.939 -43.6047 166.328 -42.6431 166.298C-41.9162 166.177 -41.2379 165.495 -40.3694 165.7L-39.5009 165.905C-38.6809 165.55 -37.3689 164.98 -36.6421 164.859C-35.9861 164.574 -33.3622 163.436 -32.1433 163.101C-30.9245 162.766 -27.5737 161.507 -27.2458 161.365C-26.9178 161.222 -25.8629 160.959 -25.5349 160.816C-25.1361 160.837 -23.8727 159.707 -23.0527 159.351C-22.0687 158.924 -19.1614 158.439 -18.5985 158.389L-18.1066 158.176L-14.3346 156.539C-10.0707 154.689 -6.06391 153.145 -5.24392 152.789L-4.96448 152.086C-4.87132 151.851 -4.37933 151.638 -4.14449 151.73C-3.74566 151.751 -3.20513 152.099 -2.92566 151.395L-2.64621 150.692C-2.36674 149.989 -2.46382 148.867 -2.84034 148.448L-2.65401 147.979C-2.65401 147.979 -2.9597 147.724 -3.03054 147.56L-3.24306 147.071C-2.84422 147.092 -2.42306 146.715 -2.25907 146.644L-2.32991 146.48L-2.40076 146.317C-2.6356 146.225 -2.75494 145.501 -2.63947 144.868C-2.524 144.236 -1.70793 142.524 -1.05194 142.239L-1.33532 141.586C-1.54784 141.096 -1.36153 140.628 -1.01122 140.088L-0.918061 139.853C-0.988902 139.69 -1.27227 139.037 -1.64879 138.618L-1.13451 138.007L-0.970501 137.936C-0.877346 137.701 -0.761871 137.069 -0.575561 136.6C-0.389251 136.131 1.20218 134.859 1.29533 134.624L1.3885 134.39L1.48166 134.156C1.57482 133.921 1.76112 133.452 1.78343 133.054C1.80575 132.657 2.17834 131.719 2.88286 131.995L2.69266 131.108L2.55098 130.781C2.73729 130.312 2.99445 130.007 3.32244 129.864C3.48644 129.793 4.65672 128.898 5.40586 128.379C6.08416 127.696 8.28306 125.578 8.70421 125.201C9.12535 124.825 11.2796 123.502 12.0996 123.146C12.9196 122.79 15.8453 120.551 16.9933 120.053L18.0481 119.789L18.7749 119.668C19.4309 119.383 20.6721 118.651 21.4921 118.295L22.3121 117.939C23.132 117.584 23.788 117.299 24.608 116.943C24.772 116.872 24.936 116.801 25.1 116.73C25.7337 116.843 26.1102 117.262 26.7177 116.416C26.9748 116.111 27.8433 116.316 28.3353 116.102C29.4833 115.604 30.6575 116.065 31.7346 115.404C31.7346 115.404 31.9695 115.496 32.0403 115.659C32.346 115.915 32.5808 116.007 32.8865 116.262L33.3339 116.844C33.755 116.467 34.1539 116.488 34.0607 116.723L34.2955 116.815C34.6012 117.07 35.0001 117.091 35.3057 117.347L36.2936 118.276L36.4353 118.603C36.741 118.858 37.4232 119.532 37.7997 119.951L38.1763 120.37C38.5528 120.789 39.0933 121.136 39.4698 121.555C40.0588 122.463 40.5771 123.209 41.1661 124.117L41.3786 124.607C41.498 125.331 41.5465 125.892 41.4534 126.127C41.3602 126.361 40.7528 127.207 40.4956 127.512C40.2385 127.818 39.8658 128.756 39.8435 129.154L39.8212 129.551C39.6349 130.02 38.7441 130.213 39.0274 130.866L39.1691 131.192C38.6063 131.242 38.1143 131.456 37.9503 131.527C37.7863 131.598 37.0149 132.515 36.7577 132.821L36.5005 133.126L36.2434 133.432C35.8223 133.808 35.5651 134.114 35.636 134.277C35.7068 134.441 35.733 135.399 35.405 135.542C35.077 135.684 34.1639 136.274 34.3279 136.203C34.5627 136.295 34.7976 136.387 34.7044 136.622L34.5404 136.693C34.3764 136.764 34.2124 136.835 34.0484 136.906C32.5947 137.149 32.6918 138.271 32.2483 139.045C31.898 139.585 31.9689 139.749 31.3575 139.238L30.7462 138.727C30.7238 139.125 30.5375 139.594 30.3027 139.502C30.1387 139.573 29.6467 139.786 29.7175 139.949L29.9524 140.042L30.6569 140.318C30.2357 140.695 29.2071 141.917 28.4357 142.834L27.6642 143.751C27.4071 144.056 27.1499 144.362 26.8219 144.504C25.9311 144.696 25.4168 145.308 25.0665 145.848L24.6453 146.224C24.1533 146.438 23.8253 146.58 23.6613 146.651L23.5682 146.886C23.4751 147.12 23.5459 147.283 23.3819 147.355C22.2339 147.853 21.6265 148.698 20.7133 149.288L19.8002 149.879C18.723 150.54 17.3179 151.344 16.5688 151.863L15.9836 152.311C15.5625 152.687 15.4693 152.922 14.6716 152.88L14.2728 152.859C13.9225 153.399 13.2665 153.683 12.8677 153.662C12.6329 153.57 12.2602 154.508 12.3311 154.671C12.2379 154.906 11.347 155.098 10.8551 155.312L10.9036 155.873L10.9745 156.036C10.8813 156.27 11.2801 156.291 11.7721 156.078C12.2641 155.864 13.8818 155.551 14.2321 155.011L14.8657 155.124C15.4994 155.237 15.8982 155.258 16.6251 155.137L17.1879 155.086C17.6799 154.873 18.4291 154.354 18.6862 154.048C18.9434 153.743 21.6867 153.329 23.6546 152.475C25.6226 151.621 30.8705 149.344 31.2694 149.365C31.6682 149.386 32.5328 148.235 32.79 147.929C33.0471 147.624 34.7356 147.473 35.5556 147.118L36.1407 146.67L36.8899 146.151C37.7099 145.795 38.8801 144.899 39.6293 144.38L40.427 144.422L40.8258 144.443C41.1315 144.699 41.3886 144.393 41.1761 143.903L42.0669 143.711L42.9578 143.518C43.7069 142.999 45.112 142.195 46.0029 142.003L46.6103 141.157L46.8675 140.852C47.5943 140.731 49.1411 140.253 50.0542 139.663C51.0382 139.236 53.308 137.282 53.3788 137.445C53.4497 137.608 53.8485 137.629 54.1056 137.323C54.1988 137.089 55.0411 136.336 55.3914 135.796L55.6263 135.888C56.4948 136.093 57.0091 135.482 57.5942 135.034L57.7582 134.963C57.993 135.055 58.5782 134.607 59.2342 134.322C59.8193 133.875 62.1376 132.481 62.8867 131.962C63.4719 131.514 65.697 130.354 66.1667 130.539L66.2113 129.743C66.2336 129.345 66.8896 129.061 67.3107 128.684C67.8027 128.471 68.2947 128.257 68.7867 128.044C68.9507 127.973 69.2787 127.83 69.2079 127.667C69.4873 126.964 70.0725 126.516 70.7993 126.395L71.6902 126.202C72.2045 125.591 73.8667 124.482 75.201 123.515C76.5353 122.548 80.9593 119.27 82.4576 118.232L83.7919 117.265C84.705 116.675 85.7822 116.014 86.1548 115.076C86.2479 114.842 86.5759 114.699 86.5759 114.699C87.2805 114.976 87.4668 114.507 87.7239 114.201C88.5662 113.448 89.2445 112.766 90.3217 112.104L91.1416 111.748C91.7491 110.903 92.6846 109.915 93.2697 109.467C93.8549 109.019 95.3755 107.583 95.8898 106.972C96.2401 106.432 98.0663 105.252 98.3235 104.946C98.7446 104.569 101.272 102.309 103.213 100.496L105.062 98.9184C105.319 98.6128 105.483 98.5417 105.576 98.3072L105.856 97.6039C106.605 97.0849 107.212 96.2393 107.469 95.9337C107.727 95.6281 108.897 94.7323 109.225 94.59L109.318 94.3556C109.668 93.8156 109.855 93.3467 110.511 93.0621C110.839 92.9198 111.096 92.6142 111.353 92.3086C111.774 91.9319 111.96 91.463 112.382 91.0863L114.044 89.977C115.259 88.2858 116.802 86.4523 117.387 86.0044C118.065 85.3221 119.772 83.4174 119.794 83.0197C120.051 82.7141 121.222 81.8183 121.479 81.5127C121.736 81.2072 122.999 80.0769 123.443 79.3025L123.793 78.7625C123.886 78.528 124.214 78.3857 124.378 78.3146L125.105 78.1933C125.456 77.6532 126.976 76.2175 128.333 74.8528L129.831 73.8147C129.831 73.8147 129.995 73.7436 129.924 73.5803L130.766 72.8268C131.773 72.0022 132.801 70.7799 133.223 70.4031C133.573 69.8631 135.891 68.4693 136.733 67.7158C137.576 66.9623 139.961 64.3753 140.639 63.693C141.388 63.174 144.079 60.8424 145.25 59.9466L146.021 59.0299L146.628 58.1843C147.542 57.5941 148.619 56.9327 148.876 56.6271C149.297 56.2504 151.216 54.8356 152.223 54.011L153.065 53.2575C153.743 52.5752 154.94 52.6381 155.476 51.6292C155.827 51.0892 156.975 50.5912 157.724 50.0721C159.222 49.0341 160.721 47.996 162.219 46.9579L162.383 46.8868C162.547 46.8156 163.788 46.0831 165.357 45.2083L166.762 44.4047C167.675 43.8145 168.495 43.4588 169.244 42.9397C170.158 42.3495 171.354 42.4125 171.891 41.4036C171.891 41.4036 172.219 41.2613 172.383 41.1902C172.897 40.579 174.049 41.4374 174.515 40.2652L174.701 39.7963C175.756 39.5327 177.209 39.2901 178.007 39.3321L178.685 38.6497L179.2 38.0386C179.997 38.0805 181.216 37.7458 181.965 37.2267L182.763 37.2687C183.162 37.2897 183.747 36.8418 184.239 36.6284L184.731 36.4149C185.037 36.6704 185.67 36.7835 186.162 36.57L186.49 36.4277C186.818 36.2854 187.005 35.8166 187.474 36.0008C188.179 36.2772 188.835 35.9926 189.726 35.8002C190.78 35.5366 192.141 35.5284 193.267 35.428L193.595 35.2857C193.993 35.3067 194.064 35.47 194.135 35.6333C194.206 35.7966 194.184 36.1943 194.255 36.3576C194.255 36.3576 194.583 36.2153 194.676 35.9809C194.769 35.7464 195.682 35.1563 196.316 35.2694L196.785 35.4536L197.02 35.5458C197.255 35.6379 197.49 35.7301 197.49 35.7301C197.654 35.6589 198.053 35.6799 198.288 35.772C198.593 36.0274 199.369 36.4671 199.298 36.3039C199.227 36.1406 199.413 35.6717 199.648 35.7638C199.883 35.856 200.681 35.8979 201.243 35.8478L201.642 35.8688C202.768 35.7685 203.003 35.8606 203.991 36.7901L204.061 36.9534C204.296 37.0456 204.788 36.8321 204.811 36.4344L205.444 36.5475L205.679 36.6396C205.843 36.5685 206.756 35.9783 207.669 35.3881L208.348 34.7058L209.704 33.3412C211.225 31.9054 213.073 30.3273 213.659 29.8794C214.408 29.3603 216.677 27.4055 217.427 26.8865C218.176 26.3674 220.844 24.4336 221.523 23.7513C222.201 23.0689 224.426 21.9096 224.847 21.5328L225.175 21.3905L226.323 20.8925C227.4 20.2311 229.063 19.1219 230.14 18.4606C231.217 17.7992 234.448 15.8152 234.869 15.4385L235.361 15.225L235.853 15.0116C236.439 14.5637 237.095 14.2791 237.352 13.9735C237.609 13.6679 240.255 12.1318 242.409 10.8091L244.683 10.2108L245.41 10.0895C246.066 9.80486 247.143 9.14352 247.657 8.53235L248.313 8.24774C248.969 7.96314 249.789 7.60739 250.609 7.25164L251.265 6.96705C251.921 6.68245 253.468 6.20538 254.523 5.94177L255.436 5.35157L256.185 4.83255C257.311 4.73222 258.694 4.3263 259.092 4.34728C259.655 4.29712 260.896 3.56465 261.623 3.44333L261.832 2.57672C261.996 2.50557 262.652 2.22097 263.144 2.00752C263.8 1.72292 265.865 1.99117 266.428 1.941L266.991 1.89082L267.717 1.76952C267.505 1.27966 267.691 0.810773 267.926 0.90291C268.09 0.83176 269.45 0.823568 270.248 0.865542L270.554 1.12099L271.4 1.72397C271.679 1.02066 272.522 0.267174 273.413 0.0747114L274.024 0.58557C274.095 0.748857 274.494 0.769832 274.587 0.535396C275.593 -0.289227 276.346 0.548201 277.144 0.590175C277.308 0.519025 277.614 0.774456 277.684 0.937743C277.591 1.17218 277.498 1.4066 278.061 1.35643C278.225 1.28528 278.553 1.14298 278.717 1.07183C279.045 0.929534 279.351 1.18498 279.515 1.11383C280.077 1.06366 280.383 1.31908 280.126 1.62467L279.682 2.39913C280.245 2.34896 281.043 2.39093 281.442 2.41192C281.841 2.43291 283.13 2.26144 283.671 2.609L284.047 3.02771C284.588 3.37527 284.238 3.91528 284.122 4.54744C283.559 4.5976 282.62 4.22907 282.008 3.71822L280.156 3.93985ZM205.868 53.2437C206.266 53.2647 206.572 53.5201 206.244 53.6624C205.916 53.8047 204.746 54.7005 204.395 55.2405L204.444 55.8015C204.563 56.5258 203.743 56.8816 203.464 57.5849C203.278 58.0538 202.763 58.6649 202.413 59.205C202.063 59.745 201.712 60.285 201.291 60.6617C200.52 61.5785 199.748 62.4953 199.845 63.6173C199.823 64.015 199.965 64.3416 199.309 64.6262C198.817 64.8396 198.724 65.0741 198.865 65.4006C198.936 65.5639 198.444 65.7774 198.351 66.0118C198.258 66.2462 198.798 66.5938 198.634 66.665L197.792 67.4184C197.654 68.4483 197.353 69.5494 197.095 69.8549C197.073 70.2527 195.53 72.0862 194.736 73.4007L194.341 74.7361L194.04 75.8372C193.268 76.7539 192.802 77.9261 193.037 78.0182L192.873 78.0894L192.78 78.3238C192.452 78.4661 192.244 79.3327 191.964 80.036C191.755 80.9026 191.387 83.1968 191.435 83.7579C191.484 84.3189 191.465 86.0731 191.749 86.7262C192.032 87.3793 194.261 87.5764 194.425 87.5053C194.589 87.4341 195.48 87.2417 195.737 86.9361C195.994 86.6305 197.493 85.5924 198.242 85.0734C199.155 84.4832 201.682 82.2228 202.196 81.6116C202.71 81.0004 204.883 77.9236 205.677 76.6091L207.011 75.6422C207.175 75.571 207.104 75.4077 207.033 75.2444C207.384 74.7044 207.898 74.0932 207.92 73.6955C207.73 72.8079 208.927 72.8709 209.042 72.2387C209.042 72.2387 209.37 72.0964 209.299 71.9331C209.202 70.8111 210.208 69.9865 210.51 68.8855C210.812 67.7844 210.95 66.7545 211.252 65.6535C211.624 64.7158 211.762 63.6859 211.971 62.8193C212.015 62.0238 212.388 61.0861 212.362 60.1274L212.406 59.3319C212.708 58.2309 212.917 57.3643 212.775 57.0377L212.54 56.9456C211.672 56.7403 211.694 56.3426 212.443 55.8236C212.607 55.7524 212.395 55.2625 212.253 54.936L212.182 54.7727C212.04 54.4461 211.757 53.793 211.544 53.3031L211.824 52.5998L211.939 51.9676C211.585 51.1512 211.395 50.2636 211.488 50.0292C211.51 49.6315 210.336 49.1708 210.265 49.0075C210.124 48.6809 208.838 50.2088 208.066 51.1256L207.224 51.8791C206.803 52.2558 206.382 52.6325 206.125 52.9381L205.868 53.2437ZM4.07375 146.418C3.4886 146.866 3.3023 147.335 3.6303 147.193C4.02913 147.214 5.31879 147.042 5.41195 146.808C5.5051 146.573 6.41828 145.983 6.58227 145.912C6.83943 145.607 8.12906 145.435 8.62105 145.222C9.2062 144.774 10.7977 143.501 11.2897 143.288C11.9456 143.003 12.8326 141.454 13.3954 141.404L13.7234 141.262C13.8874 141.191 13.9097 140.793 14.1668 140.487C14.3308 140.416 14.7297 140.437 14.8937 140.366L15.244 139.826C15.5943 139.286 16.2726 138.604 16.6006 138.461C16.9286 138.319 18.3783 136.72 19.1498 135.803L20.0629 135.213L20.8121 134.694C20.9275 134.062 21.3487 133.685 21.7475 133.706L21.9115 133.635L22.3327 133.258C22.7538 132.881 23.2904 131.873 23.8047 131.261C24.2482 130.487 26.1191 128.511 26.4694 127.971L26.8906 127.594L27.3117 127.218C27.498 126.749 27.5203 126.351 27.6843 126.28C27.6135 126.117 27.7066 125.882 27.5426 125.953L27.3078 125.861C27.1438 125.932 26.581 125.982 26.253 126.125C25.925 126.267 24.2142 126.815 23.957 127.121L23.5359 127.498L23.1148 127.874C22.4588 128.159 21.3108 128.657 20.6548 128.942L20.0696 129.389L19.6485 129.766C19.1788 129.582 18.3812 129.54 17.9823 129.519L17.8891 129.753L17.4457 130.528C16.7897 130.812 15.7126 131.474 15.0566 131.758L14.6354 132.135C14.0503 132.583 13.536 133.194 13.1109 132.215C13.1109 132.215 12.3841 132.336 12.455 132.499L12.1755 133.202C12.06 133.835 11.7097 134.375 11.4748 134.282C11.24 134.19 10.9344 133.935 11.0983 133.864C11.2623 133.793 11.3555 133.558 10.6063 134.077C9.85718 134.596 8.87712 136.38 8.73544 136.053C8.59375 135.726 7.96007 135.613 7.70292 135.919C7.51661 136.388 6.79369 137.866 6.62969 137.937C6.37254 138.242 5.62338 138.761 5.85822 138.853C5.92906 139.017 5.2993 140.26 4.94899 140.8L4.8335 141.432C4.81119 141.83 4.85973 142.391 4.53173 142.533C3.94659 142.981 4.01743 143.144 4.06596 143.705C4.11449 144.266 3.60019 144.878 3.81271 145.368L4.07375 146.418Z" fill="#C5B7FF"/>
</svg>
